<svg width="35" height="35" viewBox="0 0 35 35" fill="none" xmlns="http://www.w3.org/2000/svg">
<path d="M17.5 21.8386C17.3055 21.8386 17.1169 21.8021 16.9342 21.7292C16.7514 21.6563 16.5997 21.559 16.4792 21.4375L9.77082 14.7292C9.50346 14.4618 9.36978 14.1215 9.36978 13.7083C9.36978 13.2951 9.50346 12.9549 9.77082 12.6875C10.0382 12.4201 10.3785 12.2865 10.7917 12.2865C11.2049 12.2865 11.5451 12.4201 11.8125 12.6875L17.5 18.375L23.1875 12.6875C23.4549 12.4201 23.7951 12.2865 24.2083 12.2865C24.6215 12.2865 24.9618 12.4201 25.2292 12.6875C25.4965 12.9549 25.6302 13.2951 25.6302 13.7083C25.6302 14.1215 25.4965 14.4618 25.2292 14.7292L18.5208 21.4375C18.375 21.5833 18.217 21.6869 18.0469 21.7481C17.8767 21.8094 17.6944 21.8395 17.5 21.8386Z" fill="white"/>
</svg>
