<svg width="31" height="28" viewBox="0 0 31 28" fill="none" xmlns="http://www.w3.org/2000/svg">
<path d="M22.1555 17.6101H20.7553L20.259 17.1778C22.056 15.2952 23.0437 12.8917 23.0417 10.4059C23.0417 8.34785 22.3661 6.33597 21.1001 4.62472C19.8342 2.91347 18.0349 1.57971 15.9297 0.79211C13.8246 0.00450873 11.5081 -0.201564 9.27326 0.199952C7.03843 0.601468 4.98561 1.59254 3.37439 3.04783C1.76317 4.50313 0.665911 6.35729 0.221375 8.37585C-0.22316 10.3944 0.00499181 12.4867 0.876979 14.3881C1.74897 16.2896 3.22562 17.9148 5.12022 19.0582C7.01482 20.2016 9.24226 20.8119 11.5209 20.8119C14.3745 20.8119 16.9977 19.8674 19.0183 18.2985L19.4969 18.7467V20.0114L28.3591 28L31 25.6146L22.1555 17.6101ZM11.5209 17.6101C7.10749 17.6101 3.54489 14.3922 3.54489 10.4059C3.54489 6.41967 7.10749 3.20183 11.5209 3.20183C15.9342 3.20183 19.4969 6.41967 19.4969 10.4059C19.4969 14.3922 15.9342 17.6101 11.5209 17.6101Z" fill="white"/>
</svg>
